<?xml version="1.0" ?><svg width="512px" height="512px" viewBox="0 0 512 512" xmlns="http://www.w3.org/2000/svg"><g id="Access_denied"><path d="M80.9175,377.0605H202V439.16H139a9.8965,9.8965,0,1,0,0,19.7929H373a9.8965,9.8965,0,1,0,0-19.7929H310V377.0605H431.0869A49.9019,49.9019,0,0,0,480.64,332.9351H31.36A49.9094,49.9094,0,0,0,80.9175,377.0605Z"/><path d="M431.0869,53.0474H80.9175A49.9183,49.9183,0,0,0,31,102.9648V313.1421H481V102.9648A49.9146,49.9146,0,0,0,431.0869,53.0474ZM256,273.0947a90,90,0,1,1,90-90A89.9988,89.9988,0,0,1,256,273.0947Z"/><path d="M291.9209,147.176a9.8879,9.8879,0,0,0-13.9922,0L256,169.1047,234.0713,147.176a9.894,9.894,0,1,0-13.9922,13.9922l21.9287,21.9287-21.9287,21.9287a9.894,9.894,0,1,0,13.9922,13.9922L256,197.0891l21.9287,21.9287a9.894,9.894,0,1,0,13.9922-13.9922l-21.9287-21.9287,21.9287-21.9287A9.8879,9.8879,0,0,0,291.9209,147.176Z"/></g></svg>